# Blender v3.0.0 OBJ File: ''
# www.blender.org
mtllib untitled.mtl
o 4560N12_ER-11_Collet
v 0.062440 0.355000 0.014834
v 0.062794 -0.155294 -0.000000
v 0.058976 -0.355000 0.022107
v 0.054381 0.155294 0.031397
v 0.039940 0.355000 0.048716
v 0.045434 -0.355000 0.044997
v 0.031417 -0.155311 0.054389
v 0.010343 -0.355000 0.062129
v 0.022218 0.355000 0.058948
v -0.000011 0.155311 0.062811
v -0.018404 0.355000 0.061512
v -0.010341 -0.355000 0.062129
v -0.031397 -0.155294 0.054381
v -0.045396 -0.355000 0.044998
v -0.039941 0.355000 0.048715
v -0.054381 0.155294 0.031397
v -0.062440 0.355000 0.014834
v -0.061667 -0.355000 0.016815
v 0.144802 -0.355022 0.067619
v 0.206822 0.169346 0.107257
v 0.230342 0.169351 0.010116
v 0.169454 -0.261954 0.001988
v -0.132238 0.250750 -0.193492
v -0.195553 0.251114 -0.124676
v -0.231168 0.250391 0.009972
v -0.225750 0.250670 0.054024
v -0.205529 0.253166 0.106897
v -0.102764 0.251852 0.210108
v -0.010247 0.250041 0.232457
v 0.124220 0.250391 0.195211
v 0.158450 0.250869 0.169528
v 0.195495 0.251512 0.124633
v -0.106914 0.249352 -0.161141
v -0.159459 0.249352 -0.103619
v -0.192508 0.249352 0.011380
v -0.169635 0.249352 0.086360
v -0.086570 0.249352 0.171745
v -0.010050 0.249352 0.190337
v 0.106914 0.249352 0.161141
v 0.159459 0.249352 0.103619
v -0.106945 0.169352 -0.160823
v -0.159500 0.169352 -0.103652
v -0.189815 0.169352 0.010002
v -0.174159 0.169352 0.084322
v -0.085805 0.169352 0.173029
v -0.010015 0.169352 0.189957
v 0.106945 0.169352 0.160823
v 0.159500 0.169352 0.103652
v -0.123817 0.169352 -0.194431
v -0.195523 0.169341 -0.126647
v -0.230291 0.169352 0.010009
v -0.207441 0.169341 0.106005
v -0.106479 0.169352 0.204442
v -0.018129 0.169344 0.231847
v 0.127368 0.169332 0.197405
v 0.194035 0.169352 0.123575
v 0.096367 0.355001 0.146741
v 0.154023 0.355018 0.088925
v 0.175349 0.355002 0.010048
v -0.075153 0.355115 0.163505
v 0.078202 0.355093 0.162218
v -0.178829 0.355102 0.015193
v -0.102542 0.355090 0.148777
v -0.101623 0.355079 -0.147521
v -0.039941 0.355000 -0.048715
v -0.062440 0.355000 -0.014834
v -0.162686 0.355002 -0.067043
v -0.175349 0.355001 -0.010048
v 0.076943 0.355087 -0.161764
v 0.022218 0.355000 -0.058948
v -0.023282 0.355003 -0.174411
v -0.078974 0.355001 -0.156881
v -0.018373 0.355000 -0.061491
v 0.179311 0.299550 0.103525
v 0.209016 0.251639 0.104258
v 0.232448 0.250210 0.011058
v 0.010059 0.252915 0.231782
v 0.000909 0.299570 0.207070
v 0.058368 0.250154 0.224247
v 0.106943 0.252952 0.205859
v -0.194080 0.250471 0.131021
v -0.179311 0.299550 0.103525
v -0.124820 0.252167 0.195545
v -0.208996 0.251751 -0.104252
v -0.179306 0.299544 -0.103521
v -0.232452 0.250176 -0.011057
v -0.010172 0.252192 -0.232111
v -0.000910 0.299565 -0.207065
v -0.103709 0.250454 -0.210153
v 0.010617 0.250941 -0.233467
v 0.106729 0.250857 -0.206641
v 0.086487 0.249352 -0.169957
v 0.010649 0.249352 -0.191887
v 0.086442 0.169352 -0.169872
v 0.011469 0.169352 -0.191911
v 0.106479 0.169352 -0.204442
v 0.018129 0.169344 -0.231847
v 0.231149 0.250521 -0.009973
v 0.225750 0.250670 -0.054024
v 0.205651 0.252504 -0.106954
v 0.192841 0.249352 -0.011789
v 0.169514 0.249352 -0.086309
v 0.190334 0.169352 -0.010075
v 0.171934 0.169352 -0.086023
v 0.232789 0.169346 -0.010365
v 0.204557 0.169351 -0.106425
v -0.048633 -0.355000 -0.040022
v -0.130372 -0.355000 -0.086935
v -0.016271 -0.355000 -0.061813
v -0.094320 -0.355001 -0.125655
v -0.011267 -0.355023 -0.159424
v -0.140474 -0.355001 0.069439
v -0.155980 -0.355001 0.018856
v -0.144211 -0.355019 -0.068157
v -0.058976 -0.355000 -0.022107
v -0.012035 -0.355019 0.158880
v -0.094320 -0.355001 0.125655
v -0.130385 -0.355001 0.086918
v 0.130372 -0.355001 0.086935
v 0.094320 -0.355001 0.125655
v 0.011267 -0.355016 0.159425
v 0.141458 -0.355004 -0.069376
v 0.061667 -0.355000 -0.016815
v 0.156110 -0.355000 -0.012846
v -0.011159 0.249352 -0.192555
v -0.086365 0.249352 -0.169633
v -0.169965 0.249352 -0.086468
v -0.191864 0.249352 -0.010775
v -0.160816 0.249352 0.107265
v -0.103618 0.249352 0.159460
v 0.011159 0.249352 0.192555
v 0.086365 0.249352 0.169633
v 0.171817 0.249352 0.086362
v 0.190336 0.249352 0.010060
v -0.010100 0.169352 -0.190331
v -0.086362 0.169352 -0.171817
v -0.173235 0.169352 -0.085152
v -0.189957 0.169352 -0.010011
v -0.160361 0.169352 0.107450
v -0.103649 0.169352 0.159502
v 0.010100 0.169352 0.190331
v 0.086362 0.169352 0.171817
v 0.173235 0.169352 0.085152
v 0.189957 0.169352 0.010011
v -0.010354 0.169351 -0.231033
v -0.106431 0.169347 -0.205855
v -0.205159 0.169351 -0.106789
v -0.231492 0.169347 -0.010756
v -0.195062 0.169351 0.124278
v -0.124881 0.169347 0.195095
v 0.010354 0.169351 0.231033
v 0.106431 0.169347 0.205855
v -0.087621 -0.262007 -0.145142
v -0.169478 -0.261978 -0.001985
v -0.081887 -0.261977 0.148417
v 0.083021 -0.261980 0.147766
v 0.012035 -0.355023 -0.158880
v 0.016271 -0.355000 -0.061813
v 0.094320 -0.355001 -0.125655
v 0.130385 -0.355000 -0.086918
v 0.048633 -0.355000 -0.040022
v 0.062440 0.355000 -0.014834
v 0.054381 0.155294 -0.031397
v 0.039941 0.355000 -0.048715
v 0.031397 -0.155294 -0.054381
v -0.000000 0.155294 -0.062794
v -0.031397 -0.155294 -0.054381
v -0.054381 0.155294 -0.031397
v -0.062794 -0.155294 0.000000
v 0.178568 0.355079 -0.014247
v 0.139404 0.355002 -0.107368
v 0.096374 0.355002 -0.146835
v 0.194075 0.250502 -0.131019
v 0.179305 0.299544 -0.103523
v 0.124851 0.251862 -0.195591
v 0.160816 0.249352 -0.107265
v 0.103618 0.249352 -0.159460
v 0.160361 0.169352 -0.107450
v 0.103649 0.169352 -0.159502
v 0.195062 0.169351 -0.124278
v 0.124881 0.169347 -0.195095
v 0.081887 -0.261977 -0.148417
vn -0.9901 0.0034 -0.1403
vn -0.9976 0.0114 -0.0690
vn -0.8987 -0.0001 -0.4386
vn -0.8330 -0.0123 -0.5532
vn -0.7837 -0.0028 -0.6211
vn -0.5562 0.0000 -0.8311
vn -0.4387 0.0115 -0.8986
vn -0.3601 0.0018 -0.9329
vn -0.1553 -0.0018 -0.9879
vn -0.0630 -0.0123 -0.9979
vn 0.0696 -0.0001 -0.9976
vn 0.3739 0.0034 -0.9275
vn 0.4390 0.0114 -0.8984
vn 0.5560 0.0001 -0.8312
vn 0.7835 -0.0028 -0.6214
vn 0.8330 -0.0123 -0.5531
vn 0.8980 -0.0003 -0.4400
vn 0.9984 0.0009 -0.0558
vn 0.9635 -0.1316 0.2333
vn 0.9759 -0.1409 0.1667
vn 0.9772 -0.1620 0.1373
vn -0.0285 -0.9994 -0.0209
vn -0.0318 -0.9991 -0.0291
vn -0.0272 -0.9996 0.0097
vn -0.0285 -0.9996 0.0087
vn -0.0647 -0.9953 0.0717
vn -0.0320 -0.9982 0.0515
vn -0.0040 -0.9999 0.0163
vn 0.0267 -0.9995 0.0169
vn 0.0256 -0.9994 0.0234
vn 0.0460 -0.9987 0.0237
vn -0.7362 -0.0024 -0.6768
vn -0.7383 0.0007 -0.6744
vn -0.9779 -0.0365 0.2060
vn -0.9554 0.0466 0.2915
vn -0.2361 0.0133 0.9716
vn -0.2180 -0.0047 0.9759
vn 0.7362 -0.0024 0.6768
vn 0.7383 0.0007 0.6744
vn -0.0001 1.0000 0.0000
vn -0.0002 1.0000 -0.0002
vn -0.0000 1.0000 0.0000
vn -0.0002 1.0000 0.0002
vn 0.0001 1.0000 0.0001
vn -0.0000 1.0000 0.0002
vn 0.0004 1.0000 0.0003
vn -0.0001 1.0000 0.0002
vn -0.0002 1.0000 0.0001
vn -0.0000 1.0000 -0.0002
vn -0.0001 1.0000 -0.0001
vn 0.0001 1.0000 -0.0011
vn -0.0001 1.0000 -0.0009
vn 0.0009 1.0000 -0.0004
vn 0.0007 1.0000 -0.0005
vn 0.0006 1.0000 0.0004
vn -0.0003 1.0000 0.0007
vn -0.0009 1.0000 0.0004
vn 0.5259 0.4688 0.7097
vn 0.6133 0.4995 0.6118
vn 0.6786 0.4674 0.5666
vn 0.7337 0.4649 0.4955
vn 0.7382 0.4651 0.4886
vn 0.8451 0.4834 0.2284
vn 0.8580 0.4695 0.2085
vn 0.1508 0.4856 0.8611
vn 0.1619 0.4793 0.8626
vn 0.2947 0.4444 0.8460
vn 0.0067 0.6228 0.7824
vn -0.1476 0.4773 0.8663
vn -0.2017 0.4472 0.8714
vn -0.6791 0.5036 0.5341
vn -0.6205 0.4318 0.6547
vn -0.6793 0.6229 0.3880
vn -0.8206 0.4857 0.3010
vn -0.8265 0.4804 0.2934
vn -0.8915 0.4403 0.1068
vn -0.7794 0.4902 -0.3901
vn -0.8675 0.4586 -0.1927
vn -0.8581 0.4694 -0.2080
vn -0.6724 0.5367 -0.5097
vn -0.6656 0.4748 -0.5758
vn -0.6532 0.4575 -0.6034
vn -0.0879 0.4790 -0.8734
vn -0.2112 0.4577 -0.8636
vn -0.2623 0.4867 -0.8333
vn 0.1053 0.5359 -0.8377
vn 0.1424 0.4982 -0.8553
vn 0.2416 0.4412 -0.8643
vn 0.0102 -0.9993 -0.0354
vn 0.0098 -0.9992 -0.0382
vn 0.2820 -0.0012 -0.9594
vn 0.2778 0.0031 -0.9606
vn 0.0001 1.0000 -0.0002
vn 0.0308 -0.9995 -0.0071
vn 0.0285 -0.9996 -0.0089
vn 0.0552 -0.9969 -0.0555
vn 0.9713 -0.0355 -0.2353
vn 0.9540 0.0278 -0.2986
vn 0.0001 1.0000 -0.0000
vn 0.0000 -1.0000 0.0000
vn -0.0002 -1.0000 0.0002
vn 0.0000 -1.0000 0.0002
vn 0.0002 -1.0000 0.0000
vn -0.0001 -1.0000 -0.0002
vn 0.0001 -1.0000 -0.0002
vn -0.0000 -1.0000 0.0001
vn 0.0000 -1.0000 -0.0003
vn -0.0003 -1.0000 -0.0000
vn 0.0017 -0.9974 -0.0716
vn -0.0073 -0.9997 -0.0240
vn -0.0542 -0.9984 -0.0157
vn -0.0201 -0.9996 -0.0220
vn -0.0189 -0.9996 0.0207
vn -0.0311 -0.9977 0.0596
vn -0.0430 -0.9951 0.0892
vn 0.0053 -0.9998 0.0174
vn 0.0780 -0.9955 0.0546
vn 0.0482 -0.9985 0.0274
vn 0.0202 -0.9998 0.0049
vn -0.2358 -0.0301 -0.9713
vn -0.2914 0.0261 -0.9562
vn -0.9600 0.0347 -0.2777
vn -0.9758 -0.0253 -0.2172
vn -0.6762 -0.0021 0.7367
vn -0.6741 0.0007 0.7387
vn 0.2358 -0.0301 0.9713
vn 0.2914 0.0261 0.9562
vn 0.9717 0.0137 0.2358
vn 0.9761 -0.0048 0.2172
vn -0.0000 1.0000 0.0001
vn -0.0001 1.0000 0.0001
vn -0.5163 -0.1399 -0.8449
vn -0.6809 -0.1328 -0.7203
vn -0.7245 -0.1411 -0.6746
vn -0.3715 -0.1647 -0.9137
vn -0.3503 -0.1455 -0.9253
vn -0.2513 -0.1305 -0.9591
vn -0.9900 -0.1400 0.0162
vn -0.9642 -0.1328 0.2295
vn -0.9465 -0.1411 0.2902
vn -0.9763 -0.1713 -0.1320
vn -0.9749 -0.1436 -0.1703
vn -0.9562 -0.1305 -0.2622
vn -0.3687 -0.1741 0.9131
vn -0.3265 -0.1400 0.9348
vn -0.2936 -0.1351 0.9463
vn -0.4997 -0.1423 0.8544
vn -0.7039 -0.1334 0.6976
vn -0.7249 -0.1375 0.6749
vn 0.4744 -0.1486 0.8677
vn 0.7249 -0.1380 0.6749
vn 0.7353 -0.1357 0.6640
vn 0.3711 -0.1718 0.9126
vn 0.3374 -0.1436 0.9304
vn 0.2513 -0.1305 0.9591
vn 0.9893 -0.1448 0.0181
vn 0.9586 -0.1390 -0.2485
vn 0.9507 -0.1342 -0.2794
vn 0.0002 -1.0000 0.0002
vn -0.9984 0.0009 0.0558
vn -0.8980 -0.0003 0.4400
vn -0.8330 -0.0123 0.5531
vn -0.7784 -0.0018 0.6278
vn -0.6273 0.0019 0.7788
vn -0.5585 0.0114 0.8294
vn -0.4418 0.0001 0.8971
vn -0.1464 -0.0028 0.9892
vn -0.0625 -0.0123 0.9980
vn 0.0680 -0.0003 0.9977
vn 0.4509 0.0009 0.8926
vn 0.5585 0.0114 0.8294
vn 0.6273 0.0019 0.7788
vn 0.7784 -0.0018 0.6278
vn 0.8330 -0.0123 0.5531
vn 0.8987 -0.0001 0.4386
vn 0.9901 0.0034 0.1403
vn 0.9976 0.0114 0.0690
vn -0.0007 1.0000 -0.0005
vn 0.7266 0.4893 -0.4824
vn 0.5996 0.4616 -0.6537
vn 0.6069 0.4704 -0.6407
vn 0.7776 0.5367 -0.3275
vn 0.8247 0.4833 -0.2939
vn 0.8232 0.4847 -0.2958
vn 0.8900 0.4432 -0.1076
vn 0.0194 -0.9996 -0.0212
vn 0.0291 -0.9982 -0.0522
vn 0.6762 -0.0021 -0.7367
vn 0.6741 0.0007 -0.7387
vn 0.0000 1.0000 -0.0001
vn 0.0001 1.0000 -0.0001
vn 0.3687 -0.1741 -0.9131
vn 0.3265 -0.1400 -0.9348
vn 0.2936 -0.1351 -0.9463
vn 0.4997 -0.1423 -0.8544
vn 0.7039 -0.1334 -0.6976
vn 0.7249 -0.1375 -0.6749
vn 0.9982 -0.0317 0.0512
vn 1.0000 -0.0026 -0.0062
vn 0.9968 -0.0069 -0.0797
vn 0.9969 0.0110 -0.0777
vn 0.9239 -0.2676 -0.2734
vn 0.9803 -0.1971 0.0103
vn -0.9985 -0.0318 0.0436
vn -0.9960 -0.0067 -0.0892
vn -0.9863 -0.0114 -0.1645
vn -0.9959 -0.0102 -0.0896
vn -0.9091 -0.2974 -0.2917
vn -0.9740 -0.2266 -0.0079
vn -0.5498 -0.0317 -0.8347
vn -0.4462 -0.0095 -0.8949
vn -0.3498 0.7515 -0.5594
vn -0.4198 -0.0159 -0.9075
vn -0.2189 -0.2781 -0.9353
vn -0.4725 -0.2021 -0.8579
vn 0.4975 -0.0203 0.8672
vn 0.5516 -0.0086 0.8341
vn 0.2336 0.8446 0.4817
vn 0.5835 -0.0052 0.8121
vn 0.7184 -0.3110 0.6222
vn 0.5662 -0.2667 0.7799
vn 0.4425 -0.0316 -0.8962
vn 0.5515 -0.0087 -0.8342
vn 0.4064 0.5819 -0.7045
vn 0.5665 -0.0000 -0.8241
vn 0.7007 -0.2783 -0.6569
vn 0.5025 -0.2003 -0.8411
vn -0.4684 -0.0203 0.8833
vn -0.4443 -0.0152 0.8957
vn -0.3118 0.8235 0.4739
vn -0.4099 -0.0211 0.9119
vn -0.2062 -0.2889 0.9349
vn -0.4088 -0.2400 0.8805
vn 0.9996 -0.0203 0.0175
vn 0.9968 -0.0085 0.0794
vn 0.9816 -0.0150 0.1901
vn 0.9969 0.0001 0.0784
vn 0.9106 -0.2951 0.2893
vn 0.9764 -0.2158 0.0081
vn -0.9997 -0.0203 0.0095
vn -1.0000 -0.0026 0.0062
vn -0.9968 -0.0069 0.0798
vn -0.9969 0.0110 0.0778
vn -0.9239 -0.2676 0.2735
vn -0.9803 -0.1973 -0.0096
vn 0.5550 -0.0317 0.8312
vn 0.4376 -0.0068 0.8991
vn 0.3037 0.8307 0.4665
vn 0.3992 -0.0459 0.9157
vn 0.2196 -0.2775 0.9353
vn 0.4699 -0.2032 0.8590
vn -0.4421 -0.0317 -0.8964
vn -0.5516 -0.0086 -0.8341
vn -0.2336 0.8446 -0.4817
vn -0.5835 -0.0052 -0.8121
vn -0.7184 -0.3110 -0.6222
vn -0.5660 -0.2667 -0.7801
vn 0.4752 -0.0203 -0.8796
vn 0.4461 -0.0141 -0.8949
vn 0.3004 0.8446 -0.4432
vn 0.4088 -0.0317 -0.9121
vn 0.2204 -0.2768 -0.9353
vn 0.3918 -0.2298 -0.8909
vn -0.4977 -0.0203 0.8671
vn -0.5598 -0.0068 0.8286
vn -0.5142 0.2946 0.8055
vn -0.5665 -0.0000 0.8241
vn -0.7007 -0.2784 0.6569
vn -0.5010 -0.1998 0.8421
vn -0.0424 -0.0061 -0.9991
vn -0.0367 0.0008 -0.9993
vn 0.0045 0.0291 -0.9996
vn 0.0026 0.0298 -0.9996
vn 0.0236 0.0032 -0.9997
vn 0.0328 0.0142 -0.9994
vn 0.0050 0.0291 0.9996
vn -0.0058 0.0216 0.9997
vn -0.0051 0.0226 0.9997
vn -0.0479 0.0168 0.9987
vn 0.0087 0.0273 0.9996
vn 0.0068 0.0283 0.9996
vn 0.8794 0.0201 0.4756
vn 0.8654 0.0001 0.5010
vn 0.8819 0.0432 0.4694
vn 0.8741 0.0414 0.4840
vn 0.8856 0.0098 0.4644
vn 0.8647 0.0317 0.5012
vn -0.8669 0.0001 -0.4986
vn -0.8669 -0.0001 -0.4984
vn -0.8518 0.0201 -0.5235
vn -0.8585 0.0252 -0.5121
vn -0.8622 0.0014 -0.5066
vn -0.8650 0.0320 -0.5008
vn -0.8441 -0.0057 0.5362
vn -0.8399 -0.0148 0.5426
vn -0.8721 0.0291 0.4885
vn -0.8608 0.0379 0.5075
vn -0.9190 0.0168 0.3938
vn -0.8663 0.0324 0.4985
vn 0.8432 0.0201 -0.5372
vn 0.8601 -0.0024 -0.5101
vn 0.8480 0.0258 -0.5294
vn 0.7877 0.0398 -0.6148
vn 0.8449 0.0098 -0.5349
vn 0.8920 0.0607 -0.4479
vn 0.0424 -0.0135 0.9990
vn 0.0231 0.0101 0.9997
vn -0.0045 0.0291 0.9996
vn -0.0179 0.0238 0.9996
vn -0.0071 -0.0058 1.0000
vn -0.0340 0.0154 0.9993
vn -0.0044 0.0291 -0.9996
vn 0.0122 0.0176 -0.9998
vn -0.0030 0.0364 -0.9993
vn 0.0372 0.0312 -0.9988
vn -0.0081 0.0267 -0.9996
vn -0.0002 0.0307 -0.9995
vn 0.8469 0.0449 0.5298
vn 0.8669 -0.0001 0.4984
vn 0.8518 0.0201 0.5235
vn 0.8585 0.0252 0.5121
vn 0.8629 0.0421 0.5037
vn 0.8650 0.0320 0.5008
vn -0.8761 0.0290 -0.4812
vn -0.8432 -0.0167 -0.5374
vn -0.8724 0.0563 -0.4855
vn -0.9175 0.0685 -0.3918
vn -0.8856 0.0098 -0.4644
vn -0.8338 0.0608 -0.5487
vn 0.8786 0.0344 -0.4763
vn 0.8593 -0.0140 -0.5113
vn 0.8831 0.0201 -0.4688
vn 0.8608 0.0379 -0.5075
vn 0.8677 0.0322 -0.4961
vn 0.8825 0.0154 -0.4701
vn -0.8432 0.0201 0.5372
vn -0.8601 -0.0024 0.5102
vn -0.8665 -0.0185 0.4988
vn -0.8909 -0.0271 0.4534
vn -0.8600 0.0298 0.5093
vn -0.8723 0.0433 0.4870
usemtl None
s off
f 1//1 2//1 3//1
f 3//2 2//2 123//2
f 1//3 3//3 4//3
f 1//4 4//4 5//4
f 5//5 4//5 6//5
f 5//6 6//6 7//6
f 7//7 6//7 8//7
f 7//8 8//8 9//8
f 9//9 8//9 10//9
f 9//10 10//10 11//10
f 11//11 10//11 12//11
f 11//12 12//12 13//12
f 13//13 12//13 14//13
f 13//14 14//14 15//14
f 15//15 14//15 16//15
f 15//16 16//16 17//16
f 17//17 16//17 18//17
f 17//18 18//18 169//18
f 20//19 19//19 21//19
f 21//20 19//20 22//20
f 22//21 19//21 124//21
f 23//22 33//22 24//22
f 24//23 33//23 34//23
f 25//24 35//24 26//24
f 26//25 35//25 36//25
f 26//26 36//26 27//26
f 28//27 37//27 29//27
f 29//28 37//28 38//28
f 30//29 39//29 31//29
f 31//30 39//30 40//30
f 31//31 40//31 32//31
f 33//32 41//32 42//32
f 33//33 42//33 34//33
f 35//34 43//34 44//34
f 35//35 44//35 36//35
f 37//36 45//36 38//36
f 38//37 45//37 46//37
f 39//38 47//38 48//38
f 39//39 48//39 40//39
f 41//40 49//40 50//40
f 41//41 50//41 42//41
f 43//42 51//42 44//42
f 44//43 51//43 52//43
f 45//44 53//44 54//44
f 45//45 54//45 46//45
f 47//46 55//46 48//46
f 48//47 55//47 56//47
f 5//48 57//48 58//48
f 1//49 58//49 59//49
f 1//50 5//50 58//50
f 11//51 60//51 61//51
f 9//52 11//52 61//52
f 17//53 62//53 63//53
f 17//54 63//54 15//54
f 65//55 64//55 66//55
f 66//56 64//56 67//56
f 67//42 68//42 66//42
f 70//57 69//57 71//57
f 71//42 72//42 70//42
f 70//42 72//42 73//42
f 30//58 31//58 57//58
f 57//59 31//59 58//59
f 58//60 31//60 32//60
f 58//61 32//61 74//61
f 58//62 74//62 75//62
f 58//63 75//63 59//63
f 59//64 75//64 76//64
f 78//65 77//65 61//65
f 61//66 77//66 79//66
f 61//67 79//67 80//67
f 78//68 61//68 60//68
f 78//69 60//69 29//69
f 29//70 60//70 28//70
f 82//71 81//71 63//71
f 63//72 81//72 83//72
f 82//73 63//73 62//73
f 82//74 62//74 27//74
f 27//75 62//75 26//75
f 26//76 62//76 25//76
f 85//77 84//77 67//77
f 67//78 84//78 68//78
f 68//79 84//79 86//79
f 85//80 67//80 64//80
f 85//81 64//81 24//81
f 24//82 64//82 23//82
f 88//83 87//83 71//83
f 71//84 87//84 89//84
f 71//85 89//85 72//85
f 88//86 71//86 69//86
f 88//87 69//87 90//87
f 90//88 69//88 91//88
f 91//89 92//89 93//89
f 91//90 93//90 90//90
f 92//91 94//91 95//91
f 92//92 95//92 93//92
f 94//50 96//50 97//50
f 94//93 97//93 95//93
f 98//94 101//94 99//94
f 99//95 101//95 102//95
f 99//96 102//96 100//96
f 101//97 103//97 104//97
f 101//98 104//98 102//98
f 103//99 105//99 104//99
f 104//99 105//99 106//99
f 107//100 108//100 109//100
f 109//100 108//100 110//100
f 109//101 110//101 111//101
f 18//100 112//100 113//100
f 18//102 113//102 114//102
f 18//103 114//103 115//103
f 116//104 117//104 12//104
f 12//100 117//100 14//100
f 14//100 117//100 118//100
f 6//100 119//100 120//100
f 6//100 120//100 8//100
f 8//105 120//105 121//105
f 123//106 122//106 124//106
f 123//107 124//107 19//107
f 123//108 19//108 3//108
f 87//109 125//109 89//109
f 89//110 125//110 126//110
f 84//111 127//111 128//111
f 84//112 128//112 86//112
f 81//113 129//113 130//113
f 81//114 130//114 83//114
f 77//115 131//115 79//115
f 79//116 131//116 132//116
f 79//117 132//117 80//117
f 75//118 133//118 76//118
f 76//119 133//119 134//119
f 125//120 135//120 136//120
f 125//121 136//121 126//121
f 127//122 137//122 128//122
f 128//123 137//123 138//123
f 129//124 139//124 140//124
f 129//125 140//125 130//125
f 131//126 141//126 142//126
f 131//127 142//127 132//127
f 133//128 143//128 134//128
f 134//129 143//129 144//129
f 135//42 145//42 136//42
f 136//50 145//50 146//50
f 137//40 147//40 148//40
f 137//40 148//40 138//40
f 139//130 149//130 150//130
f 139//131 150//131 140//131
f 141//42 151//42 142//42
f 142//44 151//44 152//44
f 143//44 20//44 21//44
f 143//42 21//42 144//42
f 153//132 110//132 49//132
f 49//133 110//133 50//133
f 50//134 110//134 108//134
f 110//135 153//135 111//135
f 111//136 153//136 146//136
f 111//137 146//137 145//137
f 154//138 113//138 51//138
f 51//139 113//139 52//139
f 52//140 113//140 112//140
f 113//141 154//141 114//141
f 114//142 154//142 148//142
f 114//143 148//143 147//143
f 155//144 117//144 116//144
f 155//145 116//145 53//145
f 53//146 116//146 54//146
f 117//147 155//147 150//147
f 117//148 150//148 149//148
f 117//149 149//149 118//149
f 156//150 120//150 55//150
f 55//151 120//151 119//151
f 55//152 119//152 56//152
f 120//153 156//153 121//153
f 121//154 156//154 152//154
f 121//155 152//155 151//155
f 22//156 124//156 105//156
f 105//157 124//157 122//157
f 105//158 122//158 106//158
f 158//159 157//159 159//159
f 158//100 159//100 160//100
f 158//100 160//100 161//100
f 123//160 2//160 162//160
f 123//161 162//161 163//161
f 163//162 162//162 164//162
f 163//163 164//163 161//163
f 161//164 164//164 165//164
f 161//165 165//165 158//165
f 158//166 165//166 70//166
f 158//167 70//167 166//167
f 166//168 70//168 73//168
f 166//169 73//169 109//169
f 109//170 73//170 167//170
f 109//171 167//171 107//171
f 107//172 167//172 65//172
f 107//173 65//173 168//173
f 168//174 65//174 66//174
f 168//175 66//175 115//175
f 115//176 66//176 169//176
f 115//177 169//177 18//177
f 162//178 170//178 171//178
f 162//42 171//42 164//42
f 164//42 171//42 172//42
f 174//179 173//179 171//179
f 171//180 173//180 172//180
f 172//181 173//181 175//181
f 174//182 171//182 170//182
f 174//183 170//183 100//183
f 100//184 170//184 99//184
f 99//185 170//185 98//185
f 173//186 176//186 177//186
f 173//187 177//187 175//187
f 176//188 178//188 179//188
f 176//189 179//189 177//189
f 178//190 180//190 181//190
f 178//191 181//191 179//191
f 182//192 159//192 157//192
f 182//193 157//193 96//193
f 96//194 157//194 97//194
f 159//195 182//195 181//195
f 159//196 181//196 180//196
f 159//197 180//197 160//197
f 109//198 111//198 166//198
f 145//199 135//199 111//199
f 111//200 135//200 166//200
f 135//201 125//201 166//201
f 166//202 125//202 88//202
f 88//203 125//203 87//203
f 157//204 158//204 166//204
f 157//205 166//205 95//205
f 157//206 95//206 97//206
f 95//207 166//207 93//207
f 93//208 166//208 88//208
f 93//209 88//209 90//209
f 122//210 123//210 163//210
f 122//211 163//211 106//211
f 106//212 163//212 104//212
f 104//213 163//213 102//213
f 102//214 163//214 174//214
f 102//215 174//215 100//215
f 161//216 160//216 163//216
f 163//217 160//217 180//217
f 180//218 178//218 163//218
f 178//219 176//219 163//219
f 163//220 176//220 174//220
f 174//221 176//221 173//221
f 119//222 6//222 4//222
f 119//223 4//223 56//223
f 56//224 4//224 48//224
f 48//225 4//225 40//225
f 40//226 4//226 74//226
f 40//227 74//227 32//227
f 3//228 19//228 4//228
f 4//229 19//229 20//229
f 20//230 143//230 4//230
f 143//231 133//231 4//231
f 4//232 133//232 74//232
f 74//233 133//233 75//233
f 116//234 12//234 10//234
f 116//235 10//235 46//235
f 116//236 46//236 54//236
f 46//237 10//237 38//237
f 38//238 10//238 78//238
f 38//239 78//239 29//239
f 8//240 121//240 10//240
f 151//241 141//241 121//241
f 121//242 141//242 10//242
f 141//243 131//243 10//243
f 10//244 131//244 78//244
f 78//245 131//245 77//245
f 112//246 18//246 16//246
f 112//247 16//247 52//247
f 52//248 16//248 44//248
f 44//249 16//249 36//249
f 36//250 16//250 82//250
f 36//251 82//251 27//251
f 14//252 118//252 16//252
f 16//253 118//253 149//253
f 149//254 139//254 16//254
f 139//255 129//255 16//255
f 16//256 129//256 82//256
f 82//257 129//257 81//257
f 115//258 114//258 168//258
f 168//259 114//259 147//259
f 147//260 137//260 168//260
f 137//261 127//261 168//261
f 168//262 127//262 85//262
f 85//263 127//263 84//263
f 108//264 107//264 168//264
f 108//265 168//265 50//265
f 50//266 168//266 42//266
f 42//267 168//267 34//267
f 34//268 168//268 85//268
f 34//269 85//269 24//269
f 59//270 134//270 1//270
f 1//271 134//271 144//271
f 1//272 144//272 2//272
f 2//273 144//273 21//273
f 134//274 59//274 76//274
f 21//275 22//275 2//275
f 2//276 103//276 162//276
f 162//277 103//277 101//277
f 162//278 101//278 170//278
f 170//279 101//279 98//279
f 22//280 105//280 2//280
f 105//281 103//281 2//281
f 165//282 94//282 70//282
f 70//283 94//283 92//283
f 70//284 92//284 69//284
f 69//285 92//285 91//285
f 182//286 96//286 165//286
f 96//287 94//287 165//287
f 172//288 177//288 164//288
f 164//289 177//289 179//289
f 164//290 179//290 165//290
f 165//291 179//291 181//291
f 177//292 172//292 175//292
f 165//293 181//293 182//293
f 72//294 126//294 73//294
f 73//295 126//295 136//295
f 73//296 136//296 167//296
f 167//297 136//297 146//297
f 126//298 72//298 89//298
f 146//299 153//299 167//299
f 167//300 41//300 65//300
f 65//301 41//301 33//301
f 65//302 33//302 64//302
f 64//303 33//303 23//303
f 167//304 153//304 49//304
f 49//305 41//305 167//305
f 68//306 128//306 66//306
f 66//307 128//307 138//307
f 66//308 138//308 169//308
f 169//309 138//309 148//309
f 128//310 68//310 86//310
f 148//311 154//311 169//311
f 169//312 43//312 17//312
f 17//313 43//313 35//313
f 17//314 35//314 62//314
f 62//315 35//315 25//315
f 154//316 51//316 169//316
f 51//317 43//317 169//317
f 63//318 130//318 15//318
f 15//319 130//319 140//319
f 15//320 140//320 13//320
f 13//321 140//321 150//321
f 130//322 63//322 83//322
f 13//323 150//323 155//323
f 13//324 45//324 11//324
f 11//325 45//325 37//325
f 11//326 37//326 60//326
f 60//327 37//327 28//327
f 155//328 53//328 13//328
f 53//329 45//329 13//329
f 61//330 132//330 9//330
f 9//331 132//331 142//331
f 9//332 142//332 7//332
f 7//333 142//333 152//333
f 132//334 61//334 80//334
f 152//335 156//335 7//335
f 7//336 47//336 5//336
f 5//337 47//337 39//337
f 5//338 39//338 57//338
f 57//339 39//339 30//339
f 156//340 55//340 7//340
f 55//341 47//341 7//341
